<svg version="1.0" xmlns="http://www.w3.org/2000/svg"
 width="200.000000pt" height="200.000000pt" viewBox="0 0 200.000000 200.000000"
 preserveAspectRatio="xMidYMid meet">
<g transform="translate(0.000000,200.000000) scale(0.100000,-0.100000)"
fill="#9EE5E5" stroke="none">
<path d="M1410 1884 c-119 -23 -242 -89 -340 -181 -120 -112 -197 -248 -215
-378 -20 -140 -73 -312 -154 -494 l-49 -109 36 -35 37 -35 130 55 c173 73 348
131 451 148 154 27 267 87 379 200 272 274 267 667 -10 797 -52 24 -80 30
-152 33 -48 2 -99 1 -113 -1z m-461 -917 c20 -21 55 -50 79 -64 23 -14 42 -28
42 -32 0 -4 -33 -18 -72 -30 -40 -13 -113 -41 -162 -62 -49 -22 -91 -37 -93
-36 -6 6 119 302 131 309 6 4 17 -4 25 -20 7 -15 30 -44 50 -65z"/>
<path d="M390 475 l-185 -185 43 -42 42 -43 190 190 190 189 -37 38 c-20 21
-42 38 -48 38 -5 0 -93 -83 -195 -185z"/>
</g>
</svg>
