<?xml version="1.0" encoding="utf-8"?>
<!-- Generator: Adobe Illustrator 18.0.0, SVG Export Plug-In . SVG Version: 6.00 Build 0)  -->
<!DOCTYPE svg PUBLIC "-//W3C//DTD SVG 1.1//EN" "http://www.w3.org/Graphics/SVG/1.1/DTD/svg11.dtd">
<svg version="1.1" id="Layer_1" xmlns="http://www.w3.org/2000/svg" xmlns:xlink="http://www.w3.org/1999/xlink" x="0px" y="0px"
	 viewBox="0 0 15.3 13.7" enable-background="new 0 0 15.3 13.7" xml:space="preserve">
<g>
	<g>
		<path fill="#AAB437" d="M14.7,9.7C14.7,9.7,14.7,9.7,14.7,9.7c-0.1-0.6-0.5-1-1.3-1.3c-0.3-0.1-0.4-0.5-0.3-0.7
			c0.1-0.2,0.2-0.5,0.2-0.8c0.1-0.8,0-1.6-0.5-2.1c-0.4-0.4-0.9-0.7-1.6-0.7s-1.2,0.2-1.6,0.7C9.2,5.3,9,6,9.2,6.9
			c0.1,0.3,0.4,0.5,0.7,0.5c0.3-0.1,0.5-0.4,0.5-0.7c-0.1-0.5,0-0.8,0.2-1.1c0.2-0.2,0.4-0.3,0.7-0.3c0.3,0,0.6,0.1,0.7,0.3
			c0.2,0.2,0.3,0.6,0.2,1.1c0,0.2-0.1,0.4-0.1,0.5c-0.4,0.9,0,1.9,0.9,2.3c0.4,0.2,0.6,0.4,0.6,0.4l0.1,0.8c0,0.2,0,0.3-0.1,0.4
			c-0.1,0.1-0.3,0.2-0.4,0.2h-1.7c-0.3,0-0.6,0.3-0.6,0.6c0,0.3,0.3,0.6,0.6,0.6h1.7c0.5,0,1-0.2,1.3-0.6c0.3-0.4,0.5-0.8,0.5-1.3
			L14.7,9.7z M9.9,8.8C9.8,8.1,9.1,7.5,7.8,7C7.7,6.9,7.5,6.8,7.5,6.6c-0.1-0.1-0.1-0.3,0-0.4C7.8,5.7,7.9,5.3,8,4.7
			C8.2,3.6,8,2.7,7.4,2C6.9,1.5,6.1,1.2,5.3,1.2C4.5,1.2,3.7,1.5,3.2,2C2.6,2.7,2.4,3.6,2.6,4.7c0.1,0.5,0.2,1,0.5,1.4
			c0.1,0.1,0.1,0.3,0,0.4C3.1,6.8,2.9,6.9,2.8,7C1.5,7.5,0.8,8.1,0.7,8.8c0,0.1,0,0.1-0.1,1.9c0,0.5,0.1,1,0.5,1.3
			c0.3,0.4,0.8,0.6,1.3,0.6h5.9c0.5,0,1-0.2,1.3-0.6c0.3-0.4,0.5-0.8,0.5-1.3L9.9,8.8C9.9,8.8,9.9,8.8,9.9,8.8z M8.7,11.1
			c-0.1,0.1-0.3,0.2-0.4,0.2H2.3c-0.2,0-0.3-0.1-0.4-0.2c-0.1-0.1-0.1-0.3-0.1-0.4C1.7,9.9,1.8,9.1,1.8,9c0-0.1,0.4-0.5,1.3-0.9
			C3.7,7.9,4,7.5,4.2,7c0.2-0.5,0.1-1-0.1-1.4C4,5.4,3.9,5.1,3.8,4.5c-0.1-0.7,0-1.3,0.3-1.7c0.3-0.3,0.7-0.4,1.2-0.4
			c0.5,0,0.9,0.1,1.1,0.4c0.3,0.4,0.4,1,0.3,1.7C6.6,5.1,6.5,5.4,6.3,5.6C6.1,6,6.1,6.6,6.3,7c0.2,0.5,0.6,0.9,1.1,1.1
			c1,0.4,1.3,0.7,1.3,0.9l0.1,1.7C8.8,10.9,8.8,11,8.7,11.1z"/>
	</g>
</g>
</svg>
