<?xml version="1.0" encoding="utf-8"?>
<!-- Generator: Adobe Illustrator 18.0.0, SVG Export Plug-In . SVG Version: 6.00 Build 0)  -->
<!DOCTYPE svg PUBLIC "-//W3C//DTD SVG 1.1//EN" "http://www.w3.org/Graphics/SVG/1.1/DTD/svg11.dtd">
<svg version="1.1" id="Layer_1" xmlns="http://www.w3.org/2000/svg" xmlns:xlink="http://www.w3.org/1999/xlink" x="0px" y="0px"
	 viewBox="0 0 15.3 13.7" enable-background="new 0 0 15.3 13.7" xml:space="preserve">
<path fill="#AAB437" d="M7.7,4.1l1.8,1.7c0.3,0.3,0.8,0.5,1.3,0.5c0.5,0,0.9-0.2,1.3-0.5l1.2-1.2v5.2H2.2V4.6l1.2,1.2
	c0.3,0.3,0.8,0.5,1.3,0.5c0.5,0,0.9-0.2,1.3-0.5L7.7,4.1 M13.7,2C13.7,2,13.7,2,13.7,2c-0.3,0-0.6,0.1-0.9,0.4l-2.2,2.2L8.5,2.4
	C8.3,2.2,8,2,7.7,2S7,2.2,6.8,2.4L4.6,4.6L2.5,2.4C2.2,2.2,1.9,2,1.6,2C1.3,2,1,2.2,0.8,2.4C0.5,2.6,0.4,2.9,0.4,3.2v7.2
	c0,0.7,0.5,1.2,1.2,1.2h12.1c0.7,0,1.2-0.5,1.2-1.2V3.2C14.9,2.6,14.4,2,13.7,2L13.7,2z"/>
</svg>
