<?xml version="1.0" encoding="utf-8"?>
<!-- Generator: Adobe Illustrator 18.0.0, SVG Export Plug-In . SVG Version: 6.00 Build 0)  -->
<!DOCTYPE svg PUBLIC "-//W3C//DTD SVG 1.1//EN" "http://www.w3.org/Graphics/SVG/1.1/DTD/svg11.dtd">
<svg version="1.1" id="Layer_1" xmlns="http://www.w3.org/2000/svg" xmlns:xlink="http://www.w3.org/1999/xlink" x="0px" y="0px"
	 viewBox="0 0 15.3 13.7" enable-background="new 0 0 15.3 13.7" xml:space="preserve">
<g>
	<g>
		<path fill="#AAB437" d="M13.3,3.3c0-0.3-0.2-0.5-0.5-0.5c-0.4,0-0.8-0.1-1.2-0.1l0-0.8c0-0.7-1-0.7-1,0h0l0,0.8
			c-0.5,0-1.1,0-1.6,0l-3.7,0l0-0.8c0-0.7-1-0.7-1,0h0l0,0.9c-0.5,0-1,0-1.5,0C2.5,2.8,2.3,3,2.2,3.2C2,4.6,2.1,6.1,2.1,7.5
			c0,1.5-0.2,3,0,4.5c0,0,0,0.1,0,0.1c0,0,0,0.1,0,0.1l0,0c0.1,0.2,0.2,0.4,0.5,0.4c1.5,0.2,3,0,4.5,0c1.8,0,3.7,0.1,5.5-0.1
			c0.2,0,0.5-0.1,0.5-0.4c0.2-1,0.1-2,0.1-3c0-0.7,0.1-1.3,0.1-2C13.4,5.9,13.3,4.6,13.3,3.3z M5.2,4.3l0-0.5l3.7,0
			c0.5,0,1.1,0,1.6,0l0,0.6c0,0.7,1,0.7,1,0l0-0.6c0.3,0,0.5,0,0.8,0c0,0.6,0,1.2,0,1.8c-3.1,0-6.1,0-9.2,0.1c0-0.6,0-1.2,0.1-1.8
			c0.3,0,0.7,0,1,0l0,0.5C4.2,5,5.2,5,5.2,4.3z M7.1,11.6c-1.3,0-2.7,0.1-4,0C3.1,11.4,3,11.2,3,11c0-0.4,0-0.9,0-1.4
			c0-0.6,0.1-1.3,0.1-1.9c0-0.4,0-0.7,0-1.1c3.1,0,6.1,0,9.2-0.1c0,0.2,0,0.4,0,0.6c0,0.6,0,1.2-0.1,1.8c0,0.9,0,1.7-0.1,2.6
			C10.5,11.7,8.8,11.6,7.1,11.6z"/>
	</g>
</g>
</svg>
