<?xml version="1.0" encoding="utf-8"?>
<!-- Generator: Adobe Illustrator 18.0.0, SVG Export Plug-In . SVG Version: 6.00 Build 0)  -->
<!DOCTYPE svg PUBLIC "-//W3C//DTD SVG 1.1//EN" "http://www.w3.org/Graphics/SVG/1.1/DTD/svg11.dtd">
<svg version="1.1" id="Layer_1" xmlns="http://www.w3.org/2000/svg" xmlns:xlink="http://www.w3.org/1999/xlink" x="0px" y="0px"
	 viewBox="0 90 612 470" enable-background="new 0 90 612 470" xml:space="preserve">
<g>
	<g>
		<path fill="#FF6902" d="M287.6,247.7h13.9v55.5h13.9v-69.3h-27.7V247.7z M109.4,383.4h32.4v13.9h-32.4v41.6h46.2V425h-32.4v-13.9
			h32.4v-41.6h-46.2V383.4z M455.7,371.5v13.9h32.4v13.9h-16.2v13.9h16.2V427h-32.4v13.9h46.2v-69.3H455.7z"/>
	</g>
</g>
<g>
	<g>
		<path fill="#FF6902" d="M590.1,534.7l-56-56c0.8-1.4,1.2-2.9,1.2-4.4v-72.9l12.4,12.4c3.8,3.8,9.8,3.8,13.6,0l28.8-28.8
			c3.8-3.8,3.8-9.8,0-13.6l-48-48c-1.8-1.8-4.2-2.8-6.8-2.8h-26.1c-0.6-0.4-1.2-0.7-1.8-1c20.8-16.5,24.4-46.7,7.9-67.5
			c-16.5-20.8-46.7-24.4-67.5-7.9c-20.8,16.5-24.4,46.7-7.9,67.5c2.3,2.9,5,5.6,7.9,7.9c-0.6,0.4-1.2,0.6-1.8,1h-26
			c-2.5,0-5,1-6.8,2.8l-45.2,45.2H241.3l-45.2-45.2c-1.8-1.8-4.2-2.8-6.8-2.8h-26.1c-0.6-0.4-1.2-0.7-1.8-1
			c20.8-16.5,24.4-46.7,7.9-67.5c-16.5-20.8-46.7-24.4-67.5-7.9c-20.8,16.5-24.4,46.7-7.9,67.5c2.3,2.9,5,5.6,7.9,7.9
			c-0.6,0.4-1.2,0.6-1.8,1H74c-2.5,0-5,1-6.8,2.8l-48,48c-3.8,3.8-3.8,9.8,0,13.6L48,413.8c3.8,3.8,9.8,3.8,13.6,0L74,401.4v72.9
			c0,1.6,0.4,3.1,1.2,4.4l-56,56c-3.8,3.8-3.8,9.8,0,13.6c1.8,1.8,4.2,2.8,6.8,2.8h557.3c5.3,0,9.6-4.3,9.6-9.6
			C592.9,539,591.9,536.5,590.1,534.7z M477.6,253.3c15.9,0,28.8,12.9,28.8,28.8c0,15.9-12.9,28.8-28.8,28.8
			c-15.9,0-28.8-12.9-28.8-28.8C448.8,266.2,461.7,253.3,477.6,253.3z M423.9,339.8H449c2.1,0,4.1-0.7,5.8-1.9
			c13.5-10.1,32.1-10.1,45.7,0c1.7,1.2,3.8,1.9,6,1.9h24.8l38.4,38.4l-15.2,15.2l-22-22c-3.8-3.8-9.8-3.8-13.6,0
			c-1.8,1.8-2.8,4.2-2.8,6.8v86.5h-76.9v-86.5c0-5.3-4.3-9.6-9.6-9.6c-2.5,0-5,1-6.8,2.8l-22,22l-15.2-15.2L423.9,339.8z
			 M131.7,253.3c15.9,0,28.8,12.9,28.8,28.8c0,15.9-12.9,28.8-28.8,28.8c-15.9,0-28.8-12.9-28.8-28.8
			C102.9,266.2,115.8,253.3,131.7,253.3z M54.8,393.4l-15.2-15.2L78,339.8h25.1c2.1,0,4.1-0.7,5.8-1.9c13.5-10.1,32.1-10.1,45.7,0
			c1.7,1.2,3.8,1.9,6,1.9h24.8l38.4,38.4l-15.2,15.2l-22-22c-3.8-3.8-9.8-3.8-13.6,0c-1.8,1.8-2.8,4.2-2.8,6.8v86.5H93.2v-86.5
			c0-5.3-4.3-9.6-9.6-9.6c-2.5,0-5,1-6.8,2.8L54.8,393.4z M216.9,531.9l25.6-38.4h124.2l25.6,38.4H216.9z M415.5,531.9l-35.6-53.4
			c-1.8-2.7-4.8-4.3-8-4.3H237.4c-3.2,0-6.2,1.6-8,4.3l-35.6,53.4H49.2l48-48h82.5c5.3,0,9.6-4.3,9.6-9.6v-72.9l12.4,12.4
			c3.8,3.8,9.8,3.8,13.6,0l26-26h126.6l26,26c3.8,3.8,9.8,3.8,13.6,0l12.4-12.4v72.9c0,5.3,4.3,9.6,9.6,9.6H512l48,48H415.5z
			 M221,279.3c3.8,3.7,9.8,3.7,13.6,0l12.4-12.4v72.9c0,5.3,4.3,9.6,9.6,9.6h96.1c5.3,0,9.6-4.3,9.6-9.6v-72.9l12.4,12.4
			c3.8,3.7,9.8,3.7,13.6,0l28.8-28.8c3.7-3.8,3.7-9.8,0-13.6l-48-48c-1.8-1.8-4.2-2.8-6.8-2.8h-26.1c-0.6-0.4-1.2-0.7-1.8-1
			c20.8-16.5,24.4-46.7,7.9-67.5c-16.5-20.8-46.7-24.4-67.5-7.9c-20.8,16.5-24.4,46.7-7.9,67.5c2.3,2.9,5,5.6,7.9,7.9
			c-0.6,0.4-1.2,0.6-1.8,1h-26c-2.5,0-5,1-6.8,2.8l-48,48c-3.7,3.8-3.7,9.8,0,13.6L221,279.3z M304.6,118.8
			c15.9,0,28.8,12.9,28.8,28.8c0,15.9-12.9,28.8-28.8,28.8c-15.9,0-28.8-12.9-28.8-28.8C275.8,131.7,288.7,118.8,304.6,118.8z
			 M251,205.3h25.1c2.1,0,4.1-0.7,5.8-1.9c13.5-10.1,32.1-10.1,45.7,0c1.7,1.2,3.8,1.9,6,1.9h24.8l38.4,38.4l-15.2,15.2l-22-22
			c-3.8-3.8-9.8-3.8-13.6,0c-1.8,1.8-2.8,4.2-2.8,6.8v86.5h-76.9v-86.5c0-5.3-4.3-9.6-9.6-9.6c-2.5,0-5,1-6.8,2.8l-22,22l-15.2-15.2
			L251,205.3z"/>
	</g>
</g>
</svg>
