<?xml version="1.0" encoding="utf-8"?>
<!-- Generator: Adobe Illustrator 18.0.0, SVG Export Plug-In . SVG Version: 6.00 Build 0)  -->
<!DOCTYPE svg PUBLIC "-//W3C//DTD SVG 1.1//EN" "http://www.w3.org/Graphics/SVG/1.1/DTD/svg11.dtd">
<svg version="1.1" id="Layer_1" xmlns="http://www.w3.org/2000/svg" xmlns:xlink="http://www.w3.org/1999/xlink" x="0px" y="0px"
	 viewBox="0 0 15.3 13.7" enable-background="new 0 0 15.3 13.7" xml:space="preserve">
<path fill="#AAB437" d="M9.6,8c2.1-0.1,3.7-2.9,3.7-5.2c0-0.3-0.2-0.5-0.5-0.5h-1.4c0-0.2,0-0.3,0-0.5c0-0.3-0.2-0.5-0.5-0.5H4.4
	C4.2,1.4,4,1.6,4,1.9C4,2,4,2.2,4,2.3H2.5C2.2,2.3,2,2.6,2,2.8C2,5.1,3.7,8,5.8,8c0.4,0.5,0.9,0.8,1.4,0.9L7,11.7l-1.4,0.1
	c-0.3,0-0.5,0.2-0.5,0.5c0,0.3,0.2,0.5,0.5,0.5h4.3c0.3,0,0.5-0.2,0.5-0.5c0-0.3-0.2-0.5-0.5-0.5l-1.6-0.1L8.2,8.9
	C8.7,8.8,9.2,8.4,9.6,8z M12.4,3.3c-0.1,1.4-0.9,2.9-1.9,3.5c0.5-0.9,0.8-2.1,1-3.5H12.4z M3,3.3h1c0.1,1.4,0.5,2.6,1,3.5
	C4,6.3,3.2,4.7,3,3.3z M4.9,2.3h5.6C10.4,5.7,9,8,7.7,8C6.4,8,5,5.7,4.9,2.3z"/>
</svg>
